<svg width="100" height="34" viewBox="0 0 100 34" fill="none" xmlns="http://www.w3.org/2000/svg">
<path d="M92.0366 0.000108637H7.96787C7.66143 0.000108637 7.35867 0.000108638 7.05304 0.00177998C6.79719 0.00345133 6.54339 0.00830659 6.28509 0.012393C5.72395 0.0189963 5.16413 0.0683633 4.61049 0.160065C4.05763 0.253763 3.52209 0.43041 3.02198 0.684032C2.52248 0.939799 2.06607 1.27214 1.66931 1.66901C1.27048 2.06475 0.938012 2.52218 0.684708 3.02371C0.430706 3.52423 0.25458 4.06059 0.162413 4.61426C0.06937 5.16723 0.0193027 5.72657 0.0126604 6.28728C0.0049054 6.54349 0.00408644 6.80056 0 7.05681V26.3728C0.00408644 26.6322 0.0049054 26.8836 0.0126604 27.1432C0.0193047 27.7039 0.069372 28.2632 0.162413 28.8161C0.254325 29.3701 0.430462 29.9068 0.684708 30.4075C0.937897 30.9074 1.27041 31.363 1.66931 31.7565C2.06457 32.1551 2.52127 32.4877 3.02198 32.7415C3.52208 32.9958 4.05757 33.1735 4.61049 33.2687C5.16422 33.3596 5.72399 33.409 6.28509 33.4164C6.54339 33.4221 6.79719 33.4253 7.05304 33.4253C7.35866 33.427 7.66145 33.427 7.96787 33.427H92.0366C92.337 33.427 92.6422 33.427 92.9425 33.4253C93.1971 33.4253 93.4583 33.4221 93.7129 33.4164C94.2729 33.4094 94.8317 33.36 95.3842 33.2687C95.9389 33.1728 96.4764 32.9952 96.9789 32.7415C97.4791 32.4876 97.9354 32.155 98.3303 31.7565C98.7282 31.3614 99.0614 30.9062 99.3178 30.4075C99.5701 29.9064 99.7446 29.3698 99.8351 28.8161C99.9283 28.2631 99.9802 27.7039 99.9902 27.1432C99.9935 26.8836 99.9935 26.6322 99.9935 26.3728C100 26.0692 100 25.7672 100 25.4587V7.96919C100 7.66316 100 7.35958 99.9935 7.05681C99.9935 6.80056 99.9935 6.54349 99.9902 6.28724C99.9802 5.72649 99.9283 5.16727 99.8351 4.61423C99.7443 4.06088 99.5699 3.52456 99.3178 3.02367C98.8019 2.01842 97.9839 1.20016 96.9789 0.683956C96.4763 0.430954 95.9389 0.254354 95.3842 0.15999C94.8318 0.067884 94.273 0.0184999 93.7129 0.012276C93.4583 0.00819795 93.1971 0.00330091 92.9425 0.00167135C92.6422 0 92.337 0 92.0366 0V0.000108637Z" fill="#A6A6A6"/>
<path d="M7.05706 32.6959C6.80244 32.6959 6.55398 32.6927 6.30137 32.687C5.77805 32.6802 5.25596 32.6346 4.73938 32.5507C4.25769 32.4677 3.79106 32.3134 3.35488 32.0928C2.92271 31.8741 2.52853 31.5872 2.18745 31.2433C1.84143 30.9034 1.55335 30.5092 1.33464 30.0763C1.11351 29.6405 0.960475 29.1735 0.880866 28.6914C0.794896 28.1734 0.748382 27.6496 0.741726 27.1245C0.736428 26.9483 0.729492 26.3614 0.729492 26.3614V7.05694C0.729492 7.05694 0.73688 6.47914 0.741768 6.30939C0.748141 5.78516 0.794384 5.26217 0.880097 4.74496C0.959853 4.26154 1.113 3.79314 1.33425 3.35598C1.55217 2.92337 1.83864 2.52886 2.18258 2.18776C2.52612 1.84341 2.92156 1.55509 3.35447 1.33331C3.78965 1.11343 4.25539 0.960196 4.73611 0.878749C5.25439 0.793984 5.77829 0.748156 6.30342 0.741649L7.05747 0.731445H92.9383L93.7014 0.742058C94.2217 0.748242 94.7409 0.793661 95.2544 0.87793C95.74 0.960399 96.2106 1.1147 96.6507 1.33575C97.518 1.78271 98.2237 2.48984 98.6689 3.35802C98.8866 3.79216 99.0374 4.25674 99.1161 4.73598C99.2029 5.25744 99.2514 5.78454 99.2614 6.31307C99.2638 6.54973 99.2638 6.80395 99.2638 7.05694C99.2704 7.37031 99.2704 7.66859 99.2704 7.96932V25.4588C99.2704 25.7624 99.2704 26.0587 99.2638 26.3574C99.2638 26.6291 99.2638 26.8781 99.2605 27.1343C99.2508 27.6534 99.2031 28.1711 99.1177 28.6832C99.0397 29.1688 98.8875 29.6395 98.6665 30.0788C98.4462 30.507 98.1598 30.8978 97.8178 31.2368C97.4764 31.5825 97.0815 31.8711 96.6483 32.0912C96.2094 32.3135 95.7395 32.4684 95.2544 32.5507C94.7379 32.6351 94.2157 32.6806 93.6924 32.687C93.4476 32.6927 93.1913 32.6959 92.9424 32.6959L92.0366 32.6976L7.05706 32.6959Z" fill="black"/>
<path d="M20.6987 16.9646C20.7077 16.2671 20.893 15.5832 21.2373 14.9766C21.5816 14.3699 22.0738 13.8602 22.668 13.4949C22.2905 12.9557 21.7925 12.512 21.2135 12.199C20.6346 11.886 19.9906 11.7123 19.3327 11.6917C17.9294 11.5444 16.569 12.5315 15.8539 12.5315C15.125 12.5315 14.024 11.7064 12.8384 11.7308C12.0715 11.7555 11.3241 11.9785 10.6691 12.378C10.014 12.7775 9.47358 13.3399 9.10048 14.0104C7.48429 16.8086 8.68983 20.9209 10.238 23.1828C11.0126 24.2903 11.9179 25.5275 13.1024 25.4836C14.2615 25.4356 14.6944 24.7445 16.0936 24.7445C17.4798 24.7445 17.8859 25.4836 19.0945 25.4557C20.3383 25.4356 21.1219 24.3433 21.8693 23.2252C22.4259 22.436 22.8541 21.5638 23.1382 20.6409C22.4156 20.3353 21.799 19.8237 21.3652 19.1699C20.9313 18.5162 20.6996 17.7492 20.6987 16.9646Z" fill="white"/>
<path d="M18.4162 10.2041C19.0944 9.39001 19.4285 8.34359 19.3476 7.28711C18.3115 7.39593 17.3544 7.89112 16.6671 8.674C16.331 9.05646 16.0736 9.5014 15.9096 9.98339C15.7456 10.4654 15.6782 10.975 15.7113 11.483C16.2295 11.4884 16.7422 11.376 17.2108 11.1545C17.6793 10.933 18.0914 10.608 18.4162 10.2041Z" fill="white"/>
<path d="M35.3509 22.6794H31.3954L30.4454 25.4843H28.77L32.5167 15.1069H34.2574L38.004 25.4843H36.3L35.3509 22.6794ZM31.805 21.3851H34.9405L33.3948 16.833H33.3516L31.805 21.3851Z" fill="white"/>
<path d="M46.0957 21.7018C46.0957 24.053 44.8373 25.5636 42.9382 25.5636C42.4572 25.5887 41.9787 25.4779 41.5577 25.2438C41.1367 25.0097 40.7902 24.6618 40.5577 24.2398H40.5218V27.9873H38.9688V17.9184H40.472V19.1769H40.5006C40.7437 18.757 41.0961 18.4108 41.5204 18.1753C41.9446 17.9398 42.4247 17.8236 42.9097 17.8393C44.8299 17.8393 46.0957 19.3572 46.0957 21.7018ZM44.4994 21.7018C44.4994 20.17 43.7078 19.163 42.5 19.163C41.3134 19.163 40.5153 20.1913 40.5153 21.7018C40.5153 23.2263 41.3134 24.2472 42.5 24.2472C43.7078 24.2472 44.4994 23.2475 44.4994 21.7018Z" fill="white"/>
<path d="M54.4228 21.7018C54.4228 24.053 53.1644 25.5635 51.2654 25.5635C50.7843 25.5887 50.3059 25.4779 49.8849 25.2438C49.4639 25.0097 49.1173 24.6618 48.8848 24.2398H48.8489V27.9873H47.2959V17.9184H48.7991V19.1768H48.8277C49.0708 18.757 49.4233 18.4108 49.8475 18.1753C50.2717 17.9398 50.7518 17.8236 51.2368 17.8393C53.1571 17.8393 54.4228 19.3572 54.4228 21.7018ZM52.8265 21.7018C52.8265 20.17 52.0349 19.163 50.8271 19.163C49.6405 19.163 48.8424 20.1912 48.8424 21.7018C48.8424 23.2263 49.6405 24.2472 50.8271 24.2472C52.0349 24.2472 52.8265 23.2475 52.8265 21.7018H52.8265Z" fill="white"/>
<path d="M59.9267 22.5931C60.0417 23.6222 61.0415 24.2979 62.4076 24.2979C63.7166 24.2979 64.6583 23.6222 64.6583 22.6943C64.6583 21.8888 64.0903 21.4065 62.7454 21.076L61.4005 20.752C59.495 20.2917 58.6103 19.4005 58.6103 17.9544C58.6103 16.1639 60.1707 14.9341 62.3864 14.9341C64.5792 14.9341 66.0824 16.1639 66.133 17.9544H64.5653C64.4714 16.9188 63.6154 16.2937 62.3643 16.2937C61.1132 16.2937 60.2572 16.9262 60.2572 17.8467C60.2572 18.5804 60.804 19.0121 62.1415 19.3426L63.2848 19.6233C65.414 20.1268 66.2987 20.9821 66.2987 22.5C66.2987 24.4415 64.7522 25.6574 62.2925 25.6574C59.9911 25.6574 58.4373 24.47 58.3369 22.593L59.9267 22.5931Z" fill="white"/>
<path d="M69.6502 16.1279V17.9184H71.0889V19.1483H69.6502V23.3193C69.6502 23.9673 69.9383 24.2692 70.5707 24.2692C70.7415 24.2662 70.9121 24.2542 71.0816 24.2333V25.4558C70.7972 25.5089 70.5082 25.533 70.219 25.5276C68.6872 25.5276 68.0898 24.9522 68.0898 23.4849V19.1483H66.9897V17.9184H68.0898V16.1279H69.6502Z" fill="white"/>
<path d="M71.9224 21.7021C71.9224 19.3216 73.3244 17.8257 75.5107 17.8257C77.7043 17.8257 79.0998 19.3215 79.0998 21.7021C79.0998 24.0892 77.7117 25.5785 75.5107 25.5785C73.3105 25.5785 71.9224 24.0891 71.9224 21.7021ZM77.5174 21.7021C77.5174 20.0691 76.7691 19.1053 75.5107 19.1053C74.2523 19.1053 73.5047 20.0765 73.5047 21.7021C73.5047 23.3416 74.2523 24.2981 75.5107 24.2981C76.7691 24.2981 77.5174 23.3416 77.5174 21.7021H77.5174Z" fill="white"/>
<path d="M80.3804 17.9184H81.8616V19.2061H81.8975C81.9977 18.804 82.2333 18.4485 82.5648 18.1996C82.8962 17.9506 83.3032 17.8234 83.7174 17.8392C83.8964 17.8386 84.0748 17.858 84.2495 17.8972V19.3498C84.0235 19.2807 83.7878 19.249 83.5517 19.2559C83.3261 19.2468 83.1011 19.2866 82.8924 19.3725C82.6836 19.4585 82.4959 19.5887 82.3421 19.754C82.1884 19.9194 82.0722 20.1161 82.0017 20.3306C81.9311 20.5451 81.9078 20.7723 81.9334 20.9966V25.4843H80.3804L80.3804 17.9184Z" fill="white"/>
<path d="M91.4094 23.2625C91.2005 24.6359 89.8629 25.5785 88.1516 25.5785C85.9506 25.5785 84.5845 24.1038 84.5845 21.738C84.5845 19.3648 85.9579 17.8257 88.0863 17.8257C90.1796 17.8257 91.4959 19.2636 91.4959 21.5576V22.0897H86.1522V22.1836C86.1275 22.462 86.1624 22.7425 86.2544 23.0065C86.3465 23.2704 86.4937 23.5117 86.6862 23.7144C86.8787 23.9171 87.1121 24.0765 87.371 24.1821C87.6298 24.2876 87.9082 24.3369 88.1875 24.3266C88.5545 24.361 88.9228 24.276 89.2376 24.0843C89.5524 23.8925 89.7969 23.6043 89.9347 23.2624L91.4094 23.2625ZM86.1595 21.0043H89.9421C89.956 20.754 89.9181 20.5034 89.8306 20.2684C89.7431 20.0334 89.608 19.8191 89.4337 19.6387C89.2595 19.4584 89.0498 19.3161 88.818 19.2206C88.5861 19.1252 88.337 19.0787 88.0863 19.0841C87.8334 19.0826 87.5827 19.1312 87.3487 19.2271C87.1147 19.3229 86.9019 19.4642 86.7228 19.6428C86.5437 19.8213 86.4017 20.0335 86.305 20.2672C86.2083 20.5009 86.1589 20.7514 86.1595 21.0043V21.0043Z" fill="white"/>
<path d="M30.7013 9.40428H31.3681C31.4828 9.41858 31.5993 9.40894 31.7102 9.37598C31.8211 9.34301 31.9239 9.28744 32.0122 9.21277C32.1006 9.13809 32.1725 9.04593 32.2234 8.94208C32.2743 8.83824 32.3032 8.72497 32.3082 8.60942C32.3082 8.14955 31.9622 7.8525 31.3754 7.8525C31.2578 7.83607 31.1381 7.84336 31.0234 7.87396C30.9087 7.90455 30.8013 7.95782 30.7075 8.03062C30.6137 8.10342 30.5354 8.19427 30.4773 8.29782C30.4192 8.40137 30.3824 8.5155 30.3692 8.63349H29.6371C29.6497 8.41931 29.7063 8.21001 29.8033 8.01864C29.9003 7.82726 30.0356 7.6579 30.2009 7.52109C30.3662 7.38429 30.5579 7.28297 30.764 7.22346C30.9701 7.16394 31.1863 7.14749 31.3991 7.17514C32.3808 7.17514 33.0721 7.72477 33.0721 8.51597C33.0744 8.78103 32.9857 9.03886 32.8208 9.24642C32.656 9.45398 32.4249 9.59871 32.1662 9.65646V9.71521C32.4729 9.72882 32.7617 9.86329 32.9696 10.0892C33.1774 10.3152 33.2873 10.6142 33.2753 10.921C33.2526 11.1415 33.1861 11.3553 33.0797 11.5498C32.9733 11.7443 32.8292 11.9156 32.6557 12.0537C32.4823 12.1917 32.283 12.2938 32.0696 12.3538C31.8562 12.4139 31.633 12.4307 31.413 12.4034C31.1925 12.4335 30.9682 12.4188 30.7536 12.3604C30.5389 12.3019 30.3382 12.2008 30.1634 12.0631C29.9886 11.9254 29.8433 11.754 29.7362 11.5589C29.6292 11.3639 29.5624 11.1493 29.54 10.9279H30.2835C30.3284 11.4049 30.7666 11.7126 31.413 11.7126C32.0593 11.7126 32.4812 11.367 32.4812 10.8798C32.4812 10.3857 32.0838 10.0813 31.3893 10.0813H30.7013V9.40428Z" fill="white"/>
<path d="M34.1201 11.2182C34.1201 10.5408 34.6253 10.1504 35.5197 10.0949L36.539 10.0361V9.7113C36.539 9.31386 36.277 9.08944 35.7686 9.08944C35.354 9.08944 35.0676 9.24164 34.9844 9.50769H34.2654C34.3413 8.86135 34.9501 8.44678 35.8037 8.44678C36.7471 8.44678 37.2792 8.91643 37.2792 9.7113V12.2824H36.5635V11.7536H36.5047C36.3855 11.9433 36.218 12.0979 36.0194 12.2017C35.8208 12.3055 35.5983 12.3547 35.3744 12.3444C35.2165 12.3608 35.0568 12.344 34.9058 12.2949C34.7547 12.2459 34.6156 12.1657 34.4974 12.0596C34.3792 11.9535 34.2846 11.8238 34.2196 11.6789C34.1546 11.534 34.1207 11.377 34.1201 11.2182ZM36.539 10.8967V10.5821L35.62 10.6408C35.1018 10.6755 34.8668 10.8518 34.8668 11.1835C34.8668 11.5222 35.1606 11.7193 35.5646 11.7193C35.683 11.7313 35.8025 11.7193 35.9162 11.6841C36.0298 11.649 36.1353 11.5913 36.2262 11.5145C36.3171 11.4378 36.3916 11.3435 36.4454 11.2374C36.4991 11.1312 36.531 11.0154 36.539 10.8967Z" fill="white"/>
<path d="M39.25 9.14466V12.2825H38.5073V8.51953H40.985V9.14461L39.25 9.14466Z" fill="white"/>
<path d="M45.4858 10.3997C45.4858 11.5953 44.881 12.3448 43.9311 12.3448C43.6979 12.3608 43.465 12.3097 43.2599 12.1978C43.0547 12.0858 42.8858 11.9175 42.7731 11.7128H42.7143V13.5339H41.9717V8.51984H42.6866V9.14172H42.7421C42.8568 8.92983 43.0279 8.75378 43.2365 8.63302C43.445 8.51227 43.6829 8.4515 43.9238 8.45743C44.881 8.4574 45.4858 9.20371 45.4858 10.3997ZM44.7219 10.3997C44.7219 9.60482 44.3457 9.12455 43.7165 9.12455C43.0914 9.12455 42.7005 9.61502 42.7005 10.403C42.7005 11.1872 43.0914 11.6781 43.7132 11.6781C44.3457 11.6781 44.7219 11.1978 44.7219 10.3997Z" fill="white"/>
<path d="M46.4744 13.6303V12.9909C46.5548 13.0011 46.6358 13.0057 46.7168 13.0047C46.875 13.0165 47.032 12.9693 47.1576 12.8724C47.2832 12.7755 47.3686 12.6356 47.3974 12.4796L47.4529 12.2964L46.0908 8.51953H46.8996L47.843 11.5084H47.9017L48.8419 8.51953H49.6294L48.2266 12.438C47.905 13.3536 47.5492 13.6474 46.7821 13.6474C46.7201 13.6474 46.5438 13.6405 46.4744 13.6303Z" fill="white"/>
<path d="M50.208 11.2147H50.9474C51.02 11.5464 51.331 11.7194 51.7659 11.7194C52.2605 11.7194 52.5641 11.5015 52.5641 11.1628C52.5641 10.8001 52.2915 10.6271 51.7659 10.6271H51.2028V10.0501H51.7561C52.205 10.0501 52.4335 9.87751 52.4335 9.56292C52.4335 9.28667 52.2123 9.07572 51.7561 9.07572C51.3407 9.07572 51.0372 9.25199 50.989 9.54905H50.2733C50.3268 9.20771 50.5121 8.90101 50.7894 8.6949C51.0667 8.48879 51.4139 8.39975 51.7561 8.44692C52.6506 8.44692 53.1622 8.8513 53.1622 9.48703C53.1664 9.66406 53.1097 9.83716 53.0016 9.97739C52.8934 10.1176 52.7404 10.2165 52.5681 10.2574V10.3162C52.7732 10.3426 52.9615 10.4435 53.0972 10.5995C53.2329 10.7556 53.3066 10.9561 53.3042 11.1629C53.3042 11.8782 52.6954 12.3515 51.7659 12.3515C50.9441 12.3515 50.2766 11.9748 50.208 11.2147Z" fill="white"/>
<path d="M54.374 12.2825V8.51953H55.1101V11.1078H55.1689L56.9031 8.51954H57.6392V12.2825H56.9031V9.68043H56.8476L55.1101 12.2825L54.374 12.2825Z" fill="white"/>
<path d="M61.6945 9.14461H60.5095V12.2825H59.766V9.14461H58.5811V8.51953H61.6945V9.14461Z" fill="white"/>
<path d="M65.6948 11.2664C65.5936 11.6103 65.3748 11.9077 65.0766 12.1067C64.7784 12.3057 64.4198 12.3936 64.0634 12.3551C63.8155 12.3616 63.5691 12.3141 63.3414 12.2159C63.1137 12.1177 62.91 11.9711 62.7447 11.7863C62.5793 11.6015 62.4561 11.3829 62.3836 11.1458C62.3112 10.9086 62.2912 10.6585 62.3251 10.4128C62.2921 10.1664 62.3124 9.91572 62.3847 9.67783C62.457 9.43994 62.5795 9.22035 62.744 9.03393C62.9086 8.84752 63.1112 8.69862 63.3383 8.59733C63.5653 8.49604 63.8115 8.44472 64.0601 8.44684C65.1072 8.44684 65.7396 9.16218 65.7396 10.3438V10.603H63.0825V10.6446C63.0707 10.7827 63.088 10.9218 63.1331 11.0528C63.1783 11.1839 63.2504 11.304 63.3448 11.4055C63.4392 11.5071 63.5538 11.5877 63.6812 11.6423C63.8086 11.6969 63.946 11.7243 64.0846 11.7226C64.2621 11.7438 64.442 11.7118 64.6012 11.6306C64.7605 11.5493 64.892 11.4226 64.9791 11.2664L65.6948 11.2664ZM63.0824 10.0537H64.9823C64.9917 9.92749 64.9746 9.8007 64.932 9.68148C64.8895 9.56226 64.8225 9.45325 64.7354 9.36145C64.6482 9.26965 64.5428 9.19709 64.426 9.14843C64.3091 9.09978 64.1834 9.07609 64.0569 9.07891C63.9284 9.07716 63.8008 9.10119 63.6818 9.14956C63.5628 9.19794 63.4546 9.26968 63.3638 9.36056C63.273 9.45143 63.2013 9.5596 63.153 9.67865C63.1046 9.79771 63.0807 9.92525 63.0825 10.0537H63.0824Z" fill="white"/>
<path d="M68.8433 8.51953H70.5399C71.276 8.51953 71.7077 8.89248 71.7077 9.47638C71.7089 9.66165 71.6463 9.8417 71.5306 9.98639C71.4149 10.1311 71.253 10.2316 71.072 10.2712V10.33C71.2918 10.3439 71.4978 10.4416 71.6475 10.6031C71.7973 10.7645 71.8793 10.9773 71.8767 11.1975C71.8767 11.854 71.3829 12.2825 70.557 12.2825H68.8433V8.51953ZM69.5794 9.08957V10.064H70.3155C70.7643 10.064 70.979 9.89136 70.979 9.57309C70.979 9.27971 70.7921 9.08956 70.3979 9.08956L69.5794 9.08957ZM69.5794 10.6099V11.7125H70.46C70.899 11.7125 71.1341 11.5187 71.1341 11.1628C71.1341 10.7862 70.868 10.6099 70.3669 10.6099L69.5794 10.6099Z" fill="white"/>
</svg>
