<?xml version="1.0" encoding="utf-8"?>
<!-- Generator: Adobe Illustrator 25.4.1, SVG Export Plug-In . SVG Version: 6.00 Build 0)  -->
<svg version="1.1" id="Слой_1" xmlns="http://www.w3.org/2000/svg" xmlns:xlink="http://www.w3.org/1999/xlink" x="0px" y="0px"
	 viewBox="0 0 108 32.9" style="enable-background:new 0 0 108 32.9;" xml:space="preserve">
<style type="text/css">
	.st0{fill:#100F0D;}
	.st1{fill:#A2A2A1;}
	.st2{fill:#FFFFFF;}
	.st3{fill:#EB3131;}
	.st4{fill:#F6B60B;}
	.st5{fill:#5778C5;}
	.st6{fill:#3BAD49;}
</style>
<path class="st0" d="M104,32.4H4c-2.2,0-4-1.8-4-4V4.3c0-2.2,1.8-4,4-4h100c2.2,0,4,1.8,4,4v24.1C108,30.6,106.2,32.4,104,32.4z"/>
<path class="st1" d="M104,0.2H4c-2.2,0-4,1.8-4,4v24.1c0,2.2,1.8,4,4,4h100c2.2,0,4-1.8,4-4V4.3C108,2.1,106.2,0.2,104,0.2z
	 M104,0.9c1.9,0,3.4,1.5,3.4,3.4v24.1c0,1.9-1.5,3.4-3.4,3.4H4c-1.9,0-3.4-1.5-3.4-3.4V4.3c0-1.9,1.5-3.4,3.4-3.4H104z"/>
<path class="st2" d="M85.5,24.4H87v-10h-1.5V24.4z M99,17.9l-1.7,4.4h-0.1l-1.8-4.4h-1.6l2.7,6.1L95,27.4h1.6l4.1-9.5H99z
	 M90.5,23.2c-0.5,0-1.2-0.2-1.2-0.9c0-0.8,0.8-1.1,1.6-1.1c0.7,0,1,0.1,1.4,0.3C92.2,22.6,91.4,23.2,90.5,23.2z M90.7,17.7
	c-1.1,0-2.2,0.5-2.7,1.5l1.3,0.6c0.3-0.6,0.8-0.7,1.4-0.7c0.8,0,1.6,0.5,1.6,1.3v0.1c-0.3-0.2-0.8-0.4-1.6-0.4
	c-1.4,0-2.9,0.8-2.9,2.3c0,1.3,1.2,2.2,2.5,2.2c1,0,1.6-0.5,1.9-1h0.1v0.8h1.4v-3.9C93.7,18.7,92.4,17.7,90.7,17.7z M81.5,19.2h-2.1
	v-3.4h2.1c1.1,0,1.7,0.9,1.7,1.7C83.2,18.2,82.6,19.2,81.5,19.2z M81.4,14.3h-3.6v10h1.5v-3.8h2.1c1.7,0,3.3-1.2,3.3-3.1
	C84.7,15.5,83.1,14.3,81.4,14.3z M61.9,23.2c-1,0-1.9-0.9-1.9-2.1c0-1.2,0.9-2.1,1.9-2.1c1,0,1.8,0.9,1.8,2.1
	C63.8,22.4,63,23.2,61.9,23.2z M63.7,18.5L63.7,18.5c-0.4-0.4-1-0.8-1.8-0.8c-1.7,0-3.3,1.5-3.3,3.4c0,1.9,1.6,3.4,3.3,3.4
	c0.8,0,1.5-0.4,1.8-0.8h0.1v0.5c0,1.3-0.7,2-1.8,2c-0.9,0-1.5-0.7-1.7-1.2l-1.3,0.5c0.4,0.9,1.4,2,3,2c1.8,0,3.2-1,3.2-3.6v-6.1
	h-1.4V18.5z M66.1,24.4h1.5V14.3h-1.5V24.4z M69.8,21c0-1.3,1-2,1.8-2c0.6,0,1.1,0.3,1.3,0.7L69.8,21z M74.4,19.9
	c-0.3-0.8-1.1-2.2-2.9-2.2c-1.8,0-3.2,1.4-3.2,3.4c0,1.9,1.4,3.4,3.4,3.4c1.6,0,2.5-1,2.8-1.5l-1.2-0.8c-0.4,0.6-0.9,0.9-1.7,0.9
	c-0.8,0-1.3-0.3-1.6-1l4.5-1.9L74.4,19.9z M38.2,18.8v1.5h3.5c-0.1,0.8-0.4,1.4-0.8,1.8c-0.5,0.5-1.3,1.1-2.7,1.1
	c-2.1,0-3.8-1.7-3.8-3.9c0-2.1,1.7-3.9,3.8-3.9c1.1,0,2,0.5,2.6,1l1-1c-0.9-0.8-2-1.5-3.6-1.5c-2.9,0-5.4,2.4-5.4,5.3
	c0,2.9,2.4,5.3,5.4,5.3c1.6,0,2.8-0.5,3.7-1.5c1-1,1.3-2.3,1.3-3.4c0-0.3,0-0.6-0.1-0.9H38.2z M47.1,23.2c-1,0-1.9-0.9-1.9-2.1
	c0-1.2,0.9-2.1,1.9-2.1c1,0,1.9,0.8,1.9,2.1C49,22.4,48.1,23.2,47.1,23.2z M47.1,17.7c-1.9,0-3.4,1.4-3.4,3.4c0,2,1.5,3.4,3.4,3.4
	s3.4-1.5,3.4-3.4C50.5,19.2,48.9,17.7,47.1,17.7z M54.5,23.2c-1,0-1.9-0.9-1.9-2.1c0-1.2,0.9-2.1,1.9-2.1c1,0,1.9,0.8,1.9,2.1
	C56.4,22.4,55.5,23.2,54.5,23.2z M54.5,17.7c-1.9,0-3.4,1.4-3.4,3.4c0,2,1.5,3.4,3.4,3.4c1.9,0,3.4-1.5,3.4-3.4
	C57.9,19.2,56.4,17.7,54.5,17.7z"/>
<path class="st3" d="M16.6,15.9l-8.5,9.1c0,0,0,0,0,0c0.3,1,1.2,1.7,2.2,1.7c0.4,0,0.8-0.1,1.2-0.3l0,0l9.6-5.6L16.6,15.9z"/>
<path class="st4" d="M25.2,14.3L25.2,14.3L21,11.9l-4.7,4.2l4.7,4.7l4.1-2.4c0.7-0.4,1.2-1.2,1.2-2C26.4,15.5,25.9,14.7,25.2,14.3z"
	/>
<path class="st5" d="M8.1,7.7C8,7.9,8,8.1,8,8.3v16.1c0,0.2,0,0.4,0.1,0.6l8.8-8.9L8.1,7.7z"/>
<path class="st6" d="M16.6,16.3l4.4-4.4l-9.6-5.6C11.1,6.1,10.7,6,10.3,6c-1.1,0-2,0.7-2.2,1.7c0,0,0,0,0,0L16.6,16.3z"/>
<path class="st2" d="M34.5,10.6c-0.4-0.2-0.7-0.5-0.9-0.9c-0.2-0.4-0.3-0.8-0.3-1.3c0-0.5,0.1-0.9,0.3-1.3c0.2-0.4,0.5-0.7,0.9-0.9
	c0.4-0.2,0.8-0.3,1.3-0.3c0.7,0,1.4,0.3,1.8,0.8L37.1,7c-0.2-0.2-0.4-0.4-0.6-0.5c-0.2-0.1-0.5-0.2-0.7-0.2c-0.3,0-0.6,0.1-0.9,0.2
	c-0.3,0.2-0.5,0.4-0.7,0.7c-0.2,0.3-0.2,0.6-0.2,1c0,0.4,0.1,0.7,0.2,1c0.2,0.3,0.4,0.5,0.7,0.7c0.3,0.2,0.6,0.2,0.9,0.2
	c0.6,0,1-0.2,1.4-0.7l0.5,0.5c-0.2,0.3-0.5,0.5-0.9,0.7c-0.3,0.2-0.7,0.2-1.1,0.2C35.3,10.9,34.9,10.8,34.5,10.6z"/>
<path class="st2" d="M38.6,5.8h0.8v2.4h0l2-2.4h1v0l-2.1,2.5l2.2,2.4v0h-1l-2.1-2.3h0v2.3h-0.8V5.8z"/>
<path class="st2" d="M46,8.8l-0.6-1.5l-0.2-0.6h0l-0.2,0.6l-0.6,1.5H46z M44.8,5.8h0.9l1.9,5h-0.8l-0.5-1.3h-2l-0.5,1.3H43L44.8,5.8
	z"/>
<path class="st2" d="M50.5,8.6C50.2,8.8,49.8,9,49.3,9c-0.3,0-0.6-0.1-0.8-0.2c-0.2-0.1-0.4-0.3-0.6-0.5c-0.1-0.2-0.2-0.5-0.2-0.8
	V5.8h0.8v1.5c0,0.3,0.1,0.5,0.3,0.7c0.2,0.2,0.4,0.2,0.7,0.2c0.4,0,0.7-0.2,1-0.5v-2h0.8v5h-0.8V8.6z"/>
<path class="st2" d="M55,8.8l-0.6-1.5l-0.2-0.6h0L54,7.3l-0.6,1.5H55z M53.8,5.8h0.9l1.9,5h-0.8l-0.5-1.3h-2l-0.5,1.3h-0.8L53.8,5.8
	z"/>
<path class="st2" d="M57.8,6.5h-1.4V5.8H60v0.7h-1.4v4.3h-0.8V6.5z"/>
<path class="st2" d="M62.7,10.1c0.2,0,0.3,0,0.5-0.1c0.1-0.1,0.2-0.2,0.3-0.3c0.1-0.1,0.1-0.3,0.1-0.4c0-0.2,0-0.3-0.1-0.4
	c-0.1-0.1-0.2-0.2-0.3-0.3c-0.1-0.1-0.3-0.1-0.5-0.1h-1.1v1.8H62.7z M60.8,5.8h0.8v1.8h1.1c0.3,0,0.6,0.1,0.9,0.2
	c0.3,0.1,0.5,0.3,0.6,0.6c0.2,0.2,0.2,0.5,0.2,0.9s-0.1,0.6-0.2,0.9c-0.2,0.2-0.4,0.4-0.6,0.6c-0.3,0.1-0.6,0.2-0.9,0.2h-1.8V5.8z"
	/>
<path class="st2" d="M66.8,5.8h0.8v2.8l0,1h0l2.2-3.7h0.9v5h-0.8V8l0-1h0l-2.3,3.8h-0.8V5.8z"/>
<path class="st2" d="M72.2,10.6c-0.3-0.2-0.5-0.5-0.6-1l0.7-0.3c0.1,0.3,0.2,0.5,0.4,0.6c0.2,0.1,0.4,0.2,0.6,0.2
	c0.3,0,0.5-0.1,0.7-0.2c0.2-0.2,0.3-0.4,0.3-0.6c0-0.2,0-0.3-0.1-0.4c-0.1-0.1-0.2-0.2-0.4-0.3c-0.2-0.1-0.3-0.1-0.5-0.1h-0.4V7.9
	h0.4c0.3,0,0.5-0.1,0.6-0.2C73.9,7.5,74,7.3,74,7.1c0-0.2-0.1-0.4-0.2-0.5c-0.2-0.1-0.3-0.2-0.6-0.2c-0.2,0-0.4,0.1-0.5,0.2
	c-0.1,0.1-0.2,0.3-0.3,0.4l-0.7-0.3c0.1-0.3,0.3-0.5,0.5-0.7c0.3-0.2,0.6-0.3,1-0.3c0.3,0,0.6,0.1,0.8,0.2c0.2,0.1,0.4,0.3,0.5,0.5
	c0.1,0.2,0.2,0.4,0.2,0.7c0,0.5-0.2,0.8-0.6,1.1v0c0.2,0.1,0.4,0.3,0.6,0.5c0.1,0.2,0.2,0.5,0.2,0.7c0,0.3-0.1,0.5-0.2,0.8
	c-0.1,0.2-0.3,0.4-0.6,0.5c-0.3,0.1-0.5,0.2-0.9,0.2C72.8,10.9,72.5,10.8,72.2,10.6z"/>
</svg>
